<?xml version="1.0" standalone="no"?>
<!DOCTYPE svg PUBLIC "-//W3C//DTD SVG 20010904//EN"
 "http://www.w3.org/TR/2001/REC-SVG-20010904/DTD/svg10.dtd">
<svg version="1.0" xmlns="http://www.w3.org/2000/svg"
 width="283.000000pt" height="114.000000pt" viewBox="0 0 283.000000 114.000000"
 preserveAspectRatio="xMidYMid meet">

<g transform="translate(0.000000,114.000000) scale(0.100000,-0.100000)"
fill="#FFF" stroke="none">
<path d="M150 815 c0 -104 2 -125 15 -125 12 0 15 19 15 110 l0 110 340 0 340
0 0 -340 0 -340 -337 2 -338 3 -3 108 c-2 86 -6 107 -17 107 -12 0 -15 -22
-15 -125 l0 -125 370 0 370 0 0 370 0 370 -370 0 -370 0 0 -125z"/>
<path d="M967 903 c-4 -3 -7 -46 -7 -95 l0 -88 68 0 c40 0 73 5 80 12 17 17
15 65 -4 76 -11 6 -13 11 -5 16 19 12 12 54 -11 70 -22 16 -108 22 -121 9z
m102 -32 c25 -16 4 -41 -34 -41 -31 0 -35 3 -35 25 0 21 5 25 28 25 15 0 33
-4 41 -9z m10 -80 c27 -17 4 -41 -39 -41 -36 0 -40 2 -40 25 0 22 4 25 33 25
17 0 38 -4 46 -9z"/>
<path d="M1203 898 c-12 -6 -29 -26 -38 -45 -38 -80 34 -161 119 -133 42 14
66 48 66 95 0 72 -79 116 -147 83z m100 -49 c25 -34 13 -78 -27 -98 -25 -12
-31 -11 -55 6 -35 26 -40 74 -11 103 28 28 67 23 93 -11z"/>
<path d="M1390 836 c0 -94 18 -121 80 -121 62 0 80 27 80 121 0 59 -3 74 -15
74 -12 0 -15 -14 -15 -69 0 -61 -3 -72 -22 -85 -29 -20 -34 -20 -58 4 -16 16
-20 33 -20 85 0 51 -3 65 -15 65 -12 0 -15 -15 -15 -74z"/>
<path d="M1600 815 l0 -95 65 0 c51 0 65 3 65 15 0 11 -12 15 -50 15 l-50 0 0
80 c0 64 -3 80 -15 80 -12 0 -15 -17 -15 -95z"/>
<path d="M1770 815 l0 -95 70 0 c56 0 70 3 70 15 0 12 -13 15 -55 15 -52 0
-55 1 -55 25 0 23 3 25 50 25 38 0 50 4 50 15 0 11 -12 15 -50 15 -47 0 -50 2
-50 25 0 24 3 25 55 25 42 0 55 3 55 15 0 12 -14 15 -70 15 l-70 0 0 -95z"/>
<path d="M1969 819 c42 -101 65 -126 81 -85 5 14 23 57 40 97 16 39 30 73 30
75 0 2 -8 4 -18 4 -13 0 -25 -19 -42 -66 -14 -36 -28 -68 -31 -70 -3 -2 -18
28 -33 66 -21 52 -33 70 -46 70 -17 0 -15 -9 19 -91z"/>
<path d="M2177 873 c-8 -21 -27 -64 -41 -95 -24 -55 -25 -58 -7 -58 11 0 23 9
26 20 5 16 15 20 55 20 39 0 49 -3 53 -20 3 -12 14 -20 25 -20 19 0 17 7 -21
95 -47 106 -65 118 -90 58z m48 -43 c20 -39 20 -40 -15 -40 -16 0 -30 2 -30 4
0 8 22 66 26 66 2 0 10 -13 19 -30z"/>
<path d="M2340 815 c0 -78 3 -95 15 -95 10 0 15 10 15 30 0 25 4 30 24 30 16
0 32 -11 46 -30 12 -17 30 -30 42 -30 20 0 20 1 -4 32 l-24 31 23 23 c29 30
29 49 -2 79 -20 21 -34 25 -80 25 l-55 0 0 -95z m104 59 c20 -8 21 -38 2 -53
-21 -18 -70 -10 -74 12 -8 41 24 59 72 41z"/>
<path d="M2540 815 l0 -95 56 0 c48 0 59 4 85 29 70 70 12 161 -102 161 l-39
0 0 -95z m116 44 c19 -15 18 -74 -2 -93 -8 -9 -31 -16 -50 -16 l-34 0 0 66 0
67 36 -6 c20 -3 42 -11 50 -18z"/>
<path d="M970 663 c0 -29 64 -193 75 -193 7 0 24 29 36 64 13 36 26 63 29 61
4 -2 15 -31 25 -65 13 -42 23 -60 33 -58 14 3 87 186 78 196 -14 13 -36 -13
-51 -60 -9 -29 -19 -60 -22 -68 -2 -8 -15 17 -27 55 -28 91 -44 91 -75 1 l-25
-70 -24 72 c-14 44 -29 72 -38 72 -8 0 -14 -3 -14 -7z"/>
<path d="M1284 657 c-3 -8 -4 -52 -2 -98 l3 -84 70 0 c55 0 70 3 70 15 0 11
-12 13 -52 11 l-53 -2 0 30 c0 30 1 31 45 31 33 0 45 4 45 15 0 11 -12 15 -45
15 -38 0 -45 3 -45 20 0 17 7 20 50 20 43 0 50 3 50 20 0 18 -7 20 -65 20 -46
0 -67 -4 -71 -13z"/>
<path d="M1496 583 c-21 -49 -40 -94 -43 -100 -10 -25 28 -13 39 12 10 22 18
25 59 25 42 0 48 -3 53 -25 4 -14 14 -25 22 -25 21 0 15 26 -31 125 -19 42
-40 75 -48 75 -8 0 -30 -37 -51 -87z m72 -3 c11 -29 10 -30 -19 -30 -16 0 -29
2 -29 4 0 1 5 17 11 34 13 37 23 34 37 -8z"/>
<path d="M1680 570 l0 -100 65 0 c55 0 65 3 65 18 0 14 -9 17 -47 17 l-48 0
-3 83 c-2 64 -6 82 -17 82 -12 0 -15 -19 -15 -100z"/>
<path d="M1810 650 c0 -16 7 -20 30 -20 l30 0 0 -80 c0 -64 3 -80 15 -80 12 0
15 16 15 80 l0 80 30 0 c23 0 30 4 30 20 0 18 -7 20 -75 20 -68 0 -75 -2 -75
-20z"/>
<path d="M2000 570 c0 -82 3 -100 15 -100 11 0 15 11 15 40 l0 40 44 0 c44 0
45 0 48 -37 2 -26 8 -38 18 -38 12 0 15 17 15 95 0 78 -3 95 -15 95 -10 0 -16
-12 -18 -37 -3 -38 -4 -38 -48 -38 l-44 0 0 40 c0 29 -4 40 -15 40 -12 0 -15
-18 -15 -100z"/>
<path d="M150 570 l0 -90 59 0 c41 0 65 5 75 16 20 20 20 48 1 64 -11 9 -13
16 -5 24 17 17 11 55 -9 66 -11 5 -42 10 -70 10 l-51 0 0 -90z m106 48 c9 -15
-25 -40 -51 -36 -12 2 -21 12 -23 26 -3 19 1 22 32 22 19 0 38 -5 42 -12z m3
-67 c27 -17 4 -41 -39 -41 -36 0 -40 2 -40 25 0 22 4 25 33 25 17 0 38 -4 46
-9z"/>
<path d="M322 648 c70 -195 78 -203 109 -109 11 30 21 56 23 58 2 2 13 -22 23
-54 29 -87 45 -82 81 26 28 83 29 91 13 91 -14 0 -23 -17 -38 -67 l-20 -67
-22 67 c-13 38 -28 67 -36 67 -8 0 -23 -29 -36 -67 l-23 -68 -20 68 c-15 53
-24 67 -39 67 -11 0 -17 -5 -15 -12z"/>
<path d="M620 570 c0 -73 3 -90 15 -90 10 0 15 10 15 30 0 28 2 30 38 30 45 0
72 23 72 62 0 39 -29 58 -88 58 l-52 0 0 -90z m105 30 c0 -22 -5 -25 -37 -28
-36 -3 -38 -2 -38 28 0 30 2 31 38 28 32 -3 37 -6 37 -28z"/>
<path d="M2327 410 c-47 -37 -29 -75 46 -100 27 -8 37 -17 35 -28 -3 -16 -31
-20 -82 -10 -29 5 -30 -17 -1 -30 62 -29 120 -1 113 54 -2 24 -11 31 -48 44
-46 16 -63 43 -35 53 8 4 27 2 41 -3 33 -13 34 -13 34 4 0 18 -6 22 -46 30
-23 5 -37 2 -57 -14z"/>
<path d="M962 328 c3 -79 6 -93 21 -96 13 -3 17 3 17 27 0 27 4 31 26 31 28 0
65 16 76 34 14 20 8 63 -10 79 -13 12 -37 17 -76 17 l-57 0 3 -92z m114 40 c8
-25 -17 -48 -53 -48 -20 0 -23 5 -23 35 0 33 2 35 34 35 27 0 36 -5 42 -22z"/>
<path d="M1187 408 c-3 -7 -21 -50 -41 -95 -32 -77 -34 -83 -16 -83 13 0 22 9
26 25 5 22 11 25 54 25 43 0 49 -3 54 -25 4 -17 13 -25 27 -25 13 0 19 5 16
13 -42 104 -82 177 -97 177 -10 0 -20 -6 -23 -12z m41 -63 c16 -35 16 -35 -17
-35 -29 0 -30 1 -20 30 13 37 22 38 37 5z"/>
<path d="M1340 325 c0 -88 1 -95 20 -95 16 0 20 7 20 35 0 47 29 47 61 0 13
-19 32 -35 42 -35 22 0 22 5 -4 39 l-21 29 21 21 c25 25 27 49 5 79 -13 19
-24 22 -80 22 l-64 0 0 -95z m115 35 c0 -22 -5 -25 -37 -28 -36 -3 -38 -2 -38
28 0 30 2 31 38 28 32 -3 37 -6 37 -28z"/>
<path d="M1522 408 c3 -7 18 -15 34 -18 l29 -5 0 -75 c0 -63 3 -75 18 -78 15
-3 17 6 17 77 l0 81 30 0 c20 0 30 5 30 15 0 12 -16 15 -81 15 -60 0 -80 -3
-77 -12z"/>
<path d="M1710 325 c0 -88 2 -95 20 -95 17 0 19 8 22 66 l3 66 48 -66 c68 -92
77 -88 77 29 0 76 -3 95 -15 95 -10 0 -15 -16 -17 -62 l-3 -63 -48 63 c-30 38
-56 62 -68 62 -17 0 -19 -8 -19 -95z"/>
<path d="M1930 325 l0 -95 70 0 c56 0 70 3 70 15 0 12 -13 15 -55 15 -52 0
-55 1 -55 25 0 23 3 25 50 25 37 0 50 4 50 14 0 11 -14 16 -47 18 -41 3 -48 6
-51 26 -3 21 0 22 52 22 43 0 56 3 56 15 0 12 -14 15 -70 15 l-70 0 0 -95z"/>
<path d="M2110 324 c0 -86 2 -95 18 -92 11 2 18 14 20 36 4 44 34 43 62 -3 13
-21 30 -35 42 -35 19 0 19 1 -2 36 l-22 35 21 20 c25 23 27 46 5 77 -13 19
-24 22 -80 22 l-64 0 0 -96z m115 36 c0 -22 -5 -25 -36 -28 -34 -3 -37 -1 -41
28 -5 31 -4 31 36 28 36 -3 41 -6 41 -28z"/>
</g>
</svg>
