<?xml version="1.0" standalone="no"?>
<!DOCTYPE svg PUBLIC "-//W3C//DTD SVG 20010904//EN"
 "http://www.w3.org/TR/2001/REC-SVG-20010904/DTD/svg10.dtd">
<svg version="1.0" xmlns="http://www.w3.org/2000/svg"
 width="283.000000pt" height="114.000000pt" viewBox="0 0 283.000000 114.000000"
 preserveAspectRatio="xMidYMid meet">
<metadata>
Created by potrace 1.15, written by Peter Selinger 2001-2017
</metadata>
<g transform="translate(0.000000,114.000000) scale(0.100000,-0.100000)"
fill="#000000" stroke="none">
<path d="M150 815 c0 -104 2 -125 15 -125 12 0 15 19 15 110 l0 110 340 0 340
0 0 -340 0 -340 -340 0 -340 0 0 110 c0 91 -3 110 -15 110 -13 0 -15 -21 -15
-125 l0 -125 370 0 370 0 0 370 0 370 -370 0 -370 0 0 -125z"/>
<path d="M1214 900 c-56 -23 -73 -112 -29 -155 36 -37 97 -35 136 4 48 48 31
128 -32 150 -37 13 -46 13 -75 1z m86 -40 c26 -26 25 -68 -2 -97 -61 -65 -153
31 -93 97 23 26 69 26 95 0z"/>
<path d="M970 810 l0 -90 59 0 c41 0 65 5 75 16 20 19 21 48 2 63 -11 9 -12
18 -3 41 17 44 -3 60 -74 60 l-59 0 0 -90z"/>
<path d="M2340 810 c0 -73 3 -90 15 -90 10 0 15 11 15 35 0 30 3 35 23 35 14
0 31 -13 46 -35 13 -19 30 -35 37 -35 19 0 18 7 -6 38 l-20 25 20 19 c22 21
27 67 8 86 -7 7 -39 12 -75 12 l-63 0 0 -90z"/>
<path d="M2540 810 l0 -90 44 0 c65 0 95 15 112 55 30 73 -13 125 -102 125
l-54 0 0 -90z"/>
<path d="M150 570 l0 -90 48 0 c26 0 58 6 72 13 29 15 37 48 16 66 -12 10 -13
17 -3 38 17 37 -18 63 -84 63 l-49 0 0 -90z"/>
<path d="M354 570 c17 -49 36 -90 43 -90 6 0 21 29 33 65 12 36 23 65 25 65 2
0 13 -29 25 -65 12 -36 27 -65 34 -65 12 0 72 168 63 177 -12 11 -24 -9 -42
-66 -10 -33 -21 -58 -25 -56 -3 2 -15 31 -25 65 -10 33 -23 60 -30 60 -7 0
-20 -27 -30 -60 -10 -34 -22 -63 -26 -66 -5 -2 -17 24 -27 58 -11 35 -26 64
-34 66 -11 2 -8 -18 16 -88z"/>
<path d="M620 570 c0 -73 3 -90 15 -90 10 0 15 10 15 30 0 28 3 30 35 30 39 0
75 28 75 60 0 37 -35 60 -90 60 l-50 0 0 -90z"/>
<path d="M1002 570 c17 -53 35 -90 43 -90 7 0 24 29 36 64 13 36 26 63 29 61
4 -2 15 -31 25 -65 13 -42 23 -60 33 -58 8 2 27 39 43 83 33 93 33 95 15 95
-8 0 -21 -26 -32 -65 -10 -36 -22 -65 -26 -65 -4 0 -16 28 -26 62 -25 87 -42
86 -71 -4 l-24 -73 -24 73 c-14 42 -30 72 -38 72 -10 0 -6 -23 17 -90z"/>
<path d="M970 330 c0 -69 3 -90 14 -90 8 0 13 10 12 28 -1 25 2 27 41 30 66 5
95 60 53 102 -15 15 -33 20 -70 20 l-50 0 0 -90z"/>
<path d="M1350 330 c0 -53 4 -90 10 -90 6 0 10 14 10 30 0 25 4 30 24 30 16 0
32 -11 46 -30 12 -16 28 -30 36 -30 13 0 12 6 -5 33 -20 32 -20 33 -1 45 14 8
20 23 20 47 0 43 -20 55 -89 55 l-51 0 0 -90z"/>
<path d="M2114 330 c-1 -69 2 -90 13 -90 8 0 13 12 13 30 0 25 4 30 24 30 16
0 32 -11 45 -29 11 -16 30 -31 41 -34 20 -5 19 -3 -6 30 l-26 35 21 14 c28 20
29 79 2 94 -11 5 -44 10 -73 10 l-53 0 -1 -90z"/>
</g>
</svg>
